<?xml version="1.0" encoding="utf-8"?>
<!-- Generator: Adobe Illustrator 22.1.0, SVG Export Plug-In . SVG Version: 6.00 Build 0)  -->
<svg version="1.1" id="Layer_1" xmlns="http://www.w3.org/2000/svg" xmlns:xlink="http://www.w3.org/1999/xlink" x="0px" y="0px"
	 viewBox="0 0 100 100" enable-background="new 0 0 100 100" xml:space="preserve">
<path display="none" fill-rule="evenodd" clip-rule="evenodd" fill="#FFFFFF" d="M11.5,15.8h4.1C15.8,9,21.4,3.5,28.3,3.5
	C35.2,3.5,40.8,9,41,15.8h4.1v2.7v9c-2.4-0.5-4.4-1.4-6.4-2.2c-2.7-1.2-5.2-2.2-8.4-2.5c-3.5-0.3-6.7,0.9-9.2,3
	c-2.5,2.1-4.1,5.1-4.4,8.6c-0.3,3.4,0.9,6.7,2.9,9.1c2,2.3,4.8,4,8.1,4.4c0.1,0,0.3,0.1,0.4,0.1l0,0l0,0v0l0.1,0
	c5.6,0.9,11.6-1,16.9-2.8v37.7v2.7H41c-0.2,6.9-5.9,12.3-12.8,12.3c-6.9,0-12.5-5.5-12.8-12.3h-4.1v-2.7V18.5V15.8L11.5,15.8z
	 M30.1,25.9c5.4,0.4,9,3.8,15.6,4.9c8.6,1.4,22.3-2.1,32-2.3c16.8-0.2,15.9,22.7,7.2,12.6c-5.1-6-22.8-2.8-33-1.2
	c-5.5,0.8-15.5,6.4-23.3,5c0,0-0.1,0-0.1,0c-5.2-0.5-9-5-8.6-10.2C20.3,29.4,24.8,25.5,30.1,25.9L30.1,25.9z M28.3,61
	c3.4,0,6.1,2.7,6.1,6.1c0,2.3-1.3,4.3-3.1,5.3v7.2c0,1.6-1.3,3-3,3l0,0c-1.6,0-3-1.3-3-3v-7.2c-1.9-1-3.1-3-3.1-5.3
	C22.2,63.7,24.9,61,28.3,61L28.3,61z"/>
<path fill-rule="evenodd" clip-rule="evenodd" fill="#FFFFFF" d="M64.6,3.5h9.3h1.4l20.9,93.3H85.5l-6.6-29.5H60.5l6.6,29.5H56.4
	L35.5,3.5h4.2h6.5H64.6L64.6,3.5z M77.3,60.5l-2.7-12.1H56.3L59,60.5H77.3L77.3,60.5z M73.1,41.5l-2.7-12.1H52l2.7,12.1H73.1
	L73.1,41.5z M68.8,22.5l-2.7-12.1H47.7l2.7,12.1H68.8L68.8,22.5z"/>
<polygon fill-rule="evenodd" clip-rule="evenodd" fill="#FFFFFF" points="32.3,3.7 26.1,3.7 24.7,3.7 3.8,97 14.5,97 21.1,67.6 
	39.5,67.6 32.9,97 43.6,97 48.4,75.4 43.1,51.6 41,60.7 22.7,60.7 25.4,48.6 42.4,48.6 40.9,41.7 26.9,41.7 29.6,29.6 38.2,29.6 
	36.6,22.7 31.2,22.7 33.9,10.6 33.9,10.6 32.3,3.7 "/>
</svg>
