<?xml version="1.0" encoding="utf-8"?>
<!-- Generator: Adobe Illustrator 22.1.0, SVG Export Plug-In . SVG Version: 6.00 Build 0)  -->
<svg version="1.1" id="Layer_1" xmlns="http://www.w3.org/2000/svg" xmlns:xlink="http://www.w3.org/1999/xlink" x="0px" y="0px"
	 viewBox="0 0 100 100" enable-background="new 0 0 100 100" xml:space="preserve">
<path fill-rule="evenodd" clip-rule="evenodd" fill="#A7C6B6" d="M64.5,3.9h9.2H75l20.6,91.9H85.1l-6.5-29H60.5l6.5,29H56.5
	L35.9,3.9H40h6.4H64.5L64.5,3.9z M77.1,60l-2.7-11.9H56.3L59,60H77.1L77.1,60z M72.9,41.3l-2.7-11.9H52.1l2.7,11.9H72.9L72.9,41.3z
	 M68.7,22.6L66,10.7H47.9l2.7,11.9H68.7L68.7,22.6z"/>
<polygon fill-rule="evenodd" clip-rule="evenodd" fill="#A7C6B6" points="32.8,4.1 26.6,4.1 25.3,4.1 4.7,96 15.2,96 21.7,67 
	39.8,67 33.3,96 43.8,96 48.6,74.7 43.3,51.2 41.3,60.2 23.2,60.2 25.9,48.3 42.7,48.3 41.2,41.5 27.4,41.5 30.1,29.6 38.5,29.6 
	37,22.8 31.6,22.8 34.3,10.9 34.3,10.9 32.8,4.1 "/>
</svg>
