<?xml version="1.0" encoding="utf-8"?>
<!-- Generator: Adobe Illustrator 22.1.0, SVG Export Plug-In . SVG Version: 6.00 Build 0)  -->
<svg version="1.1" id="Layer_1" xmlns="http://www.w3.org/2000/svg" xmlns:xlink="http://www.w3.org/1999/xlink" x="0px" y="0px"
	 viewBox="0 0 100 100" enable-background="new 0 0 100 100" xml:space="preserve">
<path display="none" fill-rule="evenodd" clip-rule="evenodd" fill="#FFFFFF" d="M11.5,15.8h4.1C15.8,9,21.4,3.5,28.3,3.5
	C35.2,3.5,40.8,9,41,15.8h4.1v2.7v9c-2.4-0.5-4.4-1.4-6.4-2.2c-2.7-1.2-5.2-2.2-8.4-2.5c-3.5-0.3-6.7,0.9-9.2,3
	c-2.5,2.1-4.1,5.1-4.4,8.6c-0.3,3.4,0.9,6.7,2.9,9.1c2,2.3,4.8,4,8.1,4.4c0.1,0,0.3,0.1,0.4,0.1l0,0l0,0v0l0.1,0
	c5.6,0.9,11.6-1,16.9-2.8v37.7v2.7H41c-0.2,6.9-5.9,12.3-12.8,12.3c-6.9,0-12.5-5.5-12.8-12.3h-4.1v-2.7V18.5V15.8L11.5,15.8z
	 M30.1,25.9c5.4,0.4,9,3.8,15.6,4.9c8.6,1.4,22.3-2.1,32-2.3c16.8-0.2,15.9,22.7,7.2,12.6c-5.1-6-22.8-2.8-33-1.2
	c-5.5,0.8-15.5,6.4-23.3,5c0,0-0.1,0-0.1,0c-5.2-0.5-9-5-8.6-10.2C20.3,29.4,24.8,25.5,30.1,25.9L30.1,25.9z M28.3,61
	c3.4,0,6.1,2.7,6.1,6.1c0,2.3-1.3,4.3-3.1,5.3v7.2c0,1.6-1.3,3-3,3l0,0c-1.6,0-3-1.3-3-3v-7.2c-1.9-1-3.1-3-3.1-5.3
	C22.2,63.7,24.9,61,28.3,61L28.3,61z"/>
<path display="none" fill-rule="evenodd" clip-rule="evenodd" fill="#FFFFFF" d="M64.6,3.5h9.3h1.4l20.9,93.3H85.5l-6.6-29.5H60.5
	l6.6,29.5H56.4L35.5,3.5h4.2h6.5H64.6L64.6,3.5z M77.3,60.5l-2.7-12.1H56.3L59,60.5H77.3L77.3,60.5z M73.1,41.5l-2.7-12.1H52
	l2.7,12.1H73.1L73.1,41.5z M68.8,22.5l-2.7-12.1H47.7l2.7,12.1H68.8L68.8,22.5z"/>
<polygon display="none" fill-rule="evenodd" clip-rule="evenodd" fill="#FFFFFF" points="32.3,3.7 26.1,3.7 24.7,3.7 3.8,97 
	14.5,97 21.1,67.6 39.5,67.6 32.9,97 43.6,97 48.4,75.4 43.1,51.6 41,60.7 22.7,60.7 25.4,48.6 42.4,48.6 40.9,41.7 26.9,41.7 
	29.6,29.6 38.2,29.6 36.6,22.7 31.2,22.7 33.9,10.6 33.9,10.6 32.3,3.7 "/>
<path display="none" fill-rule="evenodd" clip-rule="evenodd" fill="#FFFFFF" d="M36.1,16.9c17.2,0,31.2,13.4,32.2,30.4h0.1v1.9
	c0,8.1,0,16.1,0,24.2h2.3v-6.6H73v6.7h2.3v-6.7h2.5v6.8H80v-6.8h2.5v12h2.3v-12h2.5v7.1h2.3v-7.1H92v7.2h2.3v-7.2h1.9v14.6H68.3h-4
	H36.4v0c-0.1,0-0.2,0-0.4,0C18.3,81.4,3.8,67,3.8,49.2C3.8,31.3,18.3,16.9,36.1,16.9L36.1,16.9z M57.3,67.8c2.1,0,3.9,1.7,3.9,3.9
	c0,2.1-1.7,3.9-3.9,3.9c-2.1,0-3.9-1.7-3.9-3.9C53.4,69.5,55.1,67.8,57.3,67.8L57.3,67.8z M36.1,28.2c11.5,0,20.9,9.4,20.9,20.9
	c0,11.5-9.4,20.9-20.9,20.9c-11.5,0-20.9-9.4-20.9-20.9C15.2,37.6,24.5,28.2,36.1,28.2L36.1,28.2z"/>
<path display="none" fill-rule="evenodd" clip-rule="evenodd" fill="#FFFFFF" d="M58.2,10c1.4,1.5,2,4.1-0.2,5.7
	c-6.1,3.8-8,7-5.8,9.8c1.6,2,5.6,3.7,8,0.5c3.2-4.3,15.1-8.6,10.8-0.1c-1.9,3.7,2.4,6.4,6.1,3.6c2.4-1.8,6.3-1.5,9.2,4.5
	c0.5,1.2,1.9,0.5,1.6-0.2c-0.4-1.1-1.3-2.8-2.5-4.7C77.9,17.6,57.6-4.3,54.5,8.3L34.2,31.9c-1-0.7-2.4-0.6-3.3,0.3l0,0
	c-1,1-1,2.6,0,3.6l30.5,30.5c1,1,2.6,1,3.6,0l0,0c1-1,1-2.6,0-3.6l-0.1-0.1l25.7-22.4c0.8-0.7,0.9-2,0.2-2.8c-0.7-0.8-2-0.9-2.8-0.2
	L62.1,59.8L37,34.6L58.2,10L58.2,10z M90.6,43.5C86.3,58.3,82,64.7,82,69.2c0,4.5,3.6,8.1,8.1,8.1c4.5,0,8.1-3.6,8.1-8.1
	C98.1,64.7,90,57.5,90.6,43.5L90.6,43.5z M59.5,68.1L29,37.6c-1-1-2.6-1-3.6,0l0,0c-1,1-1,2.6,0,3.6l30.5,30.5c1,1,2.6,1,3.6,0l0,0
	C60.5,70.7,60.5,69.1,59.5,68.1L59.5,68.1z M55.7,75.1L22,41.4l-6.4,6.4l6,6c2.9,2.9,4.3,5.6-0.1,12.1c-4.4,6.5-11.1,4.8-15.7,9.3
	c-4.5,4.5-4.5,11.7,0,16.2c4.5,4.5,11.7,4.5,16.2,0c1.3-1.3,2.2-2.9,2.8-4.5c2.5-7.7,0.6-7.4,6.6-11.2c6-3.8,9.2-3,12.1-0.1l6,6
	L55.7,75.1L55.7,75.1z"/>
<path display="none" fill="#FFFFFF" d="M31,54.1C2.8,54.2,3.6,26,30.2,26l4.8,0v-7l-4.8,0c-36.1,0-36.7,42.3,0.9,42.2l38.5-0.1
	c27.6,0,27.6,28.2,0,28.2L8,89.1c-1.9,0-3.5,1.6-3.5,3.5c0,1.9,1.6,3.5,3.5,3.5l61.5,0.2c37.6,0.1,34.7-40.9,4.2-42.1
	C73.5,54,73.2,54,72.9,54C42.9,54,61,54.1,31,54.1L31,54.1z M37.4,27.5c0.3,0.5,0.8,0.8,1.4,0.8h8.3c0.2,0,0.4,0,0.6-0.1
	c2.2,6,7.9,10.4,14.5,10.3l0.2,0v0h6.6v-32h-6.6v0l-0.2,0c-6.6,0-12.3,4.3-14.5,10.3c-0.2-0.1-0.4-0.1-0.6-0.1h-8.3
	c-0.6,0-1.1,0.3-1.4,0.8V27.5L37.4,27.5z M75,2.3L75,2.3c2,0,3.7,1.7,3.7,3.7v4.3h0v7.1h0v10.4h0v7.1h0V39c0,2-1.7,3.7-3.7,3.7h0
	c-2,0-3.7-1.7-3.7-3.7V6C71.3,4,72.9,2.3,75,2.3L75,2.3z M81.1,10.3h12.1c1.9,0,3.5,1.6,3.5,3.5s-1.6,3.5-3.5,3.5H81.1V10.3
	L81.1,10.3z M81.1,27.8h12.1c1.9,0,3.5,1.6,3.5,3.5s-1.6,3.5-3.5,3.5H81.1V27.8L81.1,27.8z"/>
<path display="none" fill="#FFFFFF" d="M93.1,41.9c0-8-6.2-14.5-13.9-14.5H67.5c-7.4-3.6-16.6-6-22.6-9.6
	C40.8,8.5,34.5,2.5,27.3,2.5C15,2.5,5,20.4,5,42.4c0,22,10,39.9,22.3,39.9c7.1,0,13.5-6,17.6-15.3c5.6-3.5,14.1-5.7,21.2-8.9
	c0,0,0,0.1,0,0.1c-2.3,0.7-4.2,2.9-4.5,5.6c-0.2,2.3,0.7,4.4,2.3,5.7l-0.2,0.7c-2.5,10.4-5,19.8-1.8,25.1c1.1,1.8,2.8,2.8,4.9,3
	c1.3,0.1,3.9-0.1,6-2.3c6-6.3,9.7-28.4,10.9-40.3C89.2,53.6,93.1,48.3,93.1,41.9z M63.8,66.9c-1-0.1-1.7-1.6-1.5-3.5
	c0.2-1.8,1.1-3.2,2.1-3.1c1,0.1,1.7,1.6,1.5,3.5C65.8,65.6,64.8,67,63.8,66.9z M41,42.4c0,4.1-0.4,7.9-1.2,11.5
	c-7.6-1-16.5-3.5-16.5-11.5c0-8.1,8.9-10.6,16.5-11.5C40.5,34.4,41,38.3,41,42.4z M27.3,79.6c-5.2,0-9.9-3.8-13.4-10
	c3.1,4.2,6.9,6.7,11.2,6.7c10.4,0,18.5-14.9,18.5-33.9c0-19-8.1-33.9-18.5-33.9c-4.2,0-8.1,2.5-11.2,6.7c3.5-6.2,8.2-10.1,13.4-10.1
	c10.9,0,19.7,16.7,19.7,37.2C47.1,62.9,38.2,79.6,27.3,79.6z"/>
<path fill="#FFFFFF" d="M66.4,77.4c-0.8-0.3-1.4-0.8-1.7-1.6c0,0,0,0,0,0l-3.6-7.6c0,0,0,0,0-0.1c-0.3-0.7-0.4-1.6-0.1-2.3
	c0.3-0.8,0.8-1.4,1.6-1.7c1.5-0.7,3.3,0,4,1.5l0,0v0l2.1,4.6c0,0,0.1,0.1,0.1,0.1l0.9,2c0,0,0,0,0,0c0,0,0,0,0,0l0.4,1c0,0,0,0,0,0
	c0.7,1.5,0,3.3-1.5,4C68,77.7,67.2,77.7,66.4,77.4z M60.1,81.3c-0.7,0.3-1.6,0.4-2.3,0.1c-0.8-0.3-1.4-0.8-1.7-1.6
	c0,0,0-0.1-0.1-0.1v0l-4.7-10.1c-0.3-0.7-0.3-1.4,0-2.1c0.3-0.8,0.8-1.4,1.6-1.7c1.5-0.7,3.3,0,4,1.5c0,0,0,0,0,0l4.7,10l0,0
	C62.3,78.8,61.6,80.6,60.1,81.3z M51.5,85.3c-0.7,0.3-1.6,0.4-2.3,0.1c-0.8-0.3-1.4-0.8-1.7-1.6c0-0.1-0.1-0.1-0.1-0.1l-3.9-8.4
	c0-0.1,0-0.2-0.1-0.3c-0.1-0.2-0.2-0.3-0.3-0.5l-1.2-2.7c-0.7-1.5,0-3.3,1.5-4c1.5-0.7,3.3,0,4,1.5c0,0,0,0,0,0l0.7,1.6
	c0.1,0.1,0.1,0.3,0.1,0.4c0,0.1,0.1,0.1,0.1,0.1l4.6,9.8c0,0,0,0,0,0.1c0,0,0,0,0,0c0.3,0.7,0.4,1.6,0.1,2.3
	C52.8,84.3,52.3,84.9,51.5,85.3z M42.9,89.2c-1.5,0.7-3.3,0-4-1.5c0,0-0.1-0.1-0.1-0.1l-1.5-3.3c0,0,0,0,0,0c0,0,0,0,0,0l-2.5-5.4
	c0,0,0,0,0,0c-0.3-0.7-0.4-1.6-0.1-2.3c0.3-0.8,0.8-1.4,1.6-1.7c0.7-0.4,1.6-0.4,2.3-0.1c0.7,0.2,1.2,0.7,1.5,1.3l4.2,9.1
	c0,0,0,0,0,0C45.1,86.8,44.4,88.6,42.9,89.2z M69.7,64.1C69.7,64.1,69.7,64.1,69.7,64.1L69.7,64.1L69.7,64.1
	c-1.5-3.2-5.3-4.6-8.6-3.1c-1.2,0.6-2.2,1.5-2.9,2.6c-1.9-1.5-4.5-2-6.8-0.9c-1.3,0.6-2.2,1.5-2.9,2.7c-1.8-1.4-4.3-1.8-6.6-0.7
	c-2.6,1.2-4,3.9-3.7,6.6c-1.2-0.1-2.3,0-3.4,0.5c-1.3,0.6-2.3,1.5-2.9,2.7l-5.8,2.7c0,0,0,0,0,0c0,0,0,0,0,0
	c-1.5,0.7-3.3,0.1-4.1-1.4c-0.4-0.7-0.4-1.6-0.2-2.3c0.3-0.8,0.8-1.4,1.5-1.7l11-5.1c0.9-0.4,1.2-1.4,0.8-2.3
	c-0.4-0.8-1.4-1.2-2.3-0.8l-11,5.1c0,0,0,0,0,0c0,0,0,0,0,0l-2,0.9c0,0,0,0,0,0c0,0-0.1,0-0.1,0c-1.5,0.8-3.3,0.1-4.1-1.4
	c-0.7-1.5-0.1-3.3,1.4-4.1c0,0,0.1-0.1,0.1-0.1l14.2-6.4c0.9-0.4,1.2-1.4,0.8-2.3c-0.4-0.9-1.4-1.2-2.3-0.8l-11.5,5.2
	c-0.1,0-0.2,0-0.3,0.1c-0.7,0.4-1.5,0.4-2.3,0.2c-0.8-0.3-1.4-0.8-1.8-1.5c-0.4-0.7-0.4-1.5-0.2-2.3c0.2-0.8,0.8-1.4,1.5-1.7
	c0,0,0,0,0,0C27.1,49.2,45.1,40.9,47,40.3c1.1-0.3,1.1-0.4,2.7,0.3c0.7,0.3,1.5,0.7,2.4,1c2.5,7,8,8.5,11.5,8.1
	c0.9-0.1,2.6-0.9,3-1.7c1.7-3.1-2.9-11.9-3.7-13.8c-0.1-0.2,8.2,4.3,9.7,7l11.2,22.7l-11.5,5.2L69.7,64.1z M32.7,84.7
	c-0.7,0.4-1.6,0.4-2.3,0.2c-0.8-0.3-1.4-0.8-1.8-1.5c-0.4-0.7-0.4-1.6-0.2-2.3c0.3-0.8,0.8-1.4,1.5-1.8c0,0,0.1-0.1,0.1-0.1l1.1-0.5
	c0.1,0.6,0.2,1.2,0.5,1.7l0,0l1.8,3.9l-0.7,0.4C32.8,84.7,32.7,84.7,32.7,84.7z M7.2,38.3l-4.4-9.2l36.8-17.2l4.4,9.2L7.2,38.3z
	 M63.6,46.4c0-1.7-1.3-5.5-4-11.1c-0.2-0.4-1.6-3.5-1.6-3.5l-0.2-0.2c-1.2-1-4-2-6.5-2.8c-0.9-0.3-3.1-0.9-5.3-1
	c-0.5,0-1-0.1-1.6-0.1c-1-0.1-2-0.2-3.1-0.2c-1.7,0-3.1,0.2-4.6,0.8L12.1,39.8l0.5,0.9l0,0l4.7,9.3c7.9-3.7,26.6-12.3,28.8-13
	c2.4-0.7,3.4-0.3,5.1,0.6c0.8,0.4,1.7,0.8,2.7,1.1c0.5,0.2,1,0.6,1.1,1.1c1.6,5.1,4.8,6.5,7.1,6.6l0,0.1L63.6,46.4z M71.1,30.4
	l9.2-4.4l17.4,35.3l-9.2,4.4l-0.9-1.9c0,0,0,0,0,0c0,0,0,0,0,0L71.1,30.4z"/>
</svg>
