<?xml version="1.0" encoding="utf-8"?>
<!-- Generator: Adobe Illustrator 22.1.0, SVG Export Plug-In . SVG Version: 6.00 Build 0)  -->
<svg version="1.1" id="Layer_1" xmlns="http://www.w3.org/2000/svg" xmlns:xlink="http://www.w3.org/1999/xlink" x="0px" y="0px"
	 viewBox="0 0 100 100" enable-background="new 0 0 100 100" xml:space="preserve">
<path fill-rule="evenodd" clip-rule="evenodd" fill="#ECDC55" d="M35.3,16.1c18.1,0,32.8,14.1,33.8,31.9h0.1v2c0,8.5,0,17,0,25.5
	h2.4v-7h2.6v7.1h2.4v-7.1h2.6v7.2h2.4v-7.2h2.6v12.7h2.4V68.5h2.6v7.4h2.4v-7.4h2.6V76h2.4v-7.5h2v15.4H69.2H65H35.7v0
	c-0.1,0-0.2,0-0.4,0C16.6,83.9,1.5,68.7,1.5,50C1.5,31.3,16.6,16.1,35.3,16.1L35.3,16.1z M57.6,69.6c2.2,0,4.1,1.8,4.1,4.1
	s-1.8,4.1-4.1,4.1c-2.2,0-4.1-1.8-4.1-4.1S55.4,69.6,57.6,69.6L57.6,69.6z M35.3,28c12.1,0,22,9.8,22,22c0,12.1-9.8,22-22,22
	c-12.1,0-22-9.8-22-22C13.4,37.9,23.2,28,35.3,28L35.3,28z"/>
</svg>
